#!OML:ASF F:\twosubjects\two\Thursday\Session 1\justin.ASF
:FULLY-SPECIFIED
:DEGREES
423
root 24.532 15.6847 -9.04896 4.99709 -41.1285 2.81035
lowerback 32.5536 2.30999 -3.67208
upperback 8.1122 1.40724 0.509407
thorax -7.87513 0.529313 2.01708
lowerneck -6.27112 -13.7739 -17.5595
upperneck -22.3796 -15.8699 23.6702
head -1.89833 -8.28195 9.88967
rclavicle -4.49253e-014 1.43125e-014
rhumerus -23.7453 -10.2944 -79.2446
rradius 43.7974
rwrist -6.03536
rhand -12.093 13.9391
rfingers 7.12502
rthumb 13.9674 -15.5718
lclavicle -4.49253e-014 1.43125e-014
lhumerus -27.2181 -5.97382 88.522
lradius 68.8675
lwrist -19.7618
lhand -13.8645 36.3103
lfingers 7.12502
lthumb 12.2598 65.931
rfemur -38.7619 -12.219 10.7049
rtibia 70.6324
rfoot -34.8142 -8.48843
rtoes -26.7846
lfemur -40.7745 3.97487 3.69264
ltibia 46.7177
lfoot -11.3172 2.49592
ltoes -25.0024
424
root 24.567 15.6998 -9.15407 5.47529 -41.3708 1.91702
lowerback 32.8991 2.34678 -2.53639
upperback 8.19829 1.79288 0.484053
thorax -7.91141 0.697688 1.24333
lowerneck -6.40034 -13.7821 -16.4822
upperneck -22.4973 -15.9285 23.1276
head -2.06461 -8.35456 9.5516
rclavicle -4.35338e-014 8.98507e-014
rhumerus -23.4538 -11.0643 -79.3086
rradius 43.9929
rwrist -5.95942
rhand -10.3929 14.7177
rfingers 7.12502
rthumb 15.6052 -14.6728
lclavicle -4.35338e-014 8.98507e-014
lhumerus -27.0953 -6.77866 88.6251
lradius 68.6837
lwrist -19.393
lhand -14.0952 36.6711
lfingers 7.12502
lthumb 12.0373 66.305
rfemur -39.1043 -12.003 11.7239
rtibia 70.5124
rfoot -34.4616 -7.96801
rtoes -26.8847
lfemur -41.1664 5.27189 3.43622
ltibia 49.3581
lfoot -12.5255 1.91902
ltoes -25.7545
425
root 24.5911 15.7355 -9.25654 5.32861 -41.7051 2.55731
lowerback 32.9542 2.71057 -2.63706
upperback 8.16747 2.18648 0.229036
thorax -7.97151 0.886456 0.885539
lowerneck -6.72988 -13.9857 -15.4235
upperneck -22.5264 -16.2199 22.7841
head -2.10609 -8.54484 9.22852
rclavicle 6.04305e-014 -1.90833e-014
rhumerus -23.5002 -12.071 -79.2454
rradius 44.7024
rwrist -6.14538
rhand -9.51763 14.8199
rfingers 7.12502
rthumb 16.4481 -14.5028
lclavicle 6.04305e-014 -1.90833e-014
lhumerus -26.9193 -7.98883 88.7344
lradius 68.3995
lwrist -18.6044
lhand -14.8692 36.9329
lfingers 7.12502
lthumb 11.2909 66.609
rfemur -39.8004 -11.7199 11.4818
rtibia 70.2983
rfoot -34.0212 -7.6239
rtoes -27.4553
lfemur -42.0052 6.40144 1.83172
ltibia 52.4479
lfoot -13.5599 1.3587
ltoes -24.8401
426
root 24.6291 15.771 -9.35281 5.18308 -41.9844 3.19689
lowerback 32.8542 2.69416 -3.02402
upperback 8.22256 2.04256 0.237856
thorax -7.87784 0.819236 1.15518
lowerneck -7.03526 -13.8593 -15.31
upperneck -22.6189 -16.0196 22.6886
head -2.14417 -8.44158 9.19279
rclavicle 4.47266e-014 5.1684e-015
rhumerus -23.1889 -11.4115 -79.1954
rradius 45.4941
rwrist -6.63299
rhand -13.2249 12.6917
rfingers 7.12502
rthumb 12.8764 -16.8911
lclavicle 4.47266e-014 5.1684e-015
lhumerus -26.7719 -7.5344 88.9495
lradius 68.2225
lwrist -17.6617
lhand -15.9056 37.0631
lfingers 7.12502
lthumb 10.2912 66.7913
rfemur -40.4961 -11.7217 11.22
rtibia 70.0005
rfoot -33.4663 -7.53535
rtoes -28.128
lfemur -42.8345 7.36358 0.24884
ltibia 55.8602
lfoot -14.6575 0.529457
ltoes -24.8077
427
root 24.677 15.8054 -9.44893 5.36271 -42.3644 3.09685
lowerback 32.7703 2.42323 -3.18964
upperback 8.48921 1.66578 0.494659
thorax -7.55219 0.627364 1.6532
lowerneck -7.66312 -13.3652 -15.2657
upperneck -22.7675 -15.2907 22.4568
head -2.25277 -8.05322 9.17351
rclavicle -9.54166e-015 -4.49253e-014
rhumerus -21.9743 -9.79284 -79.2625
rradius 45.6733
rwrist -7.08614
rhand -12.5364 12.8309
rfingers 7.12502
rthumb 13.54 -16.7089
lclavicle -9.54166e-015 -4.49253e-014
lhumerus -26.4666 -5.97119 89.1392
lradius 68.1261
lwrist -16.9733
lhand -17.2581 36.4884
lfingers 7.12502
lthumb 8.98629 66.277
rfemur -41.0184 -11.7523 11.5877
rtibia 69.6386
rfoot -32.9647 -7.25864
rtoes -28.069
lfemur -43.5159 8.58723 -0.810129
ltibia 59.455
lfoot -15.3901 -0.65648
ltoes -26.1603
428
root 24.73 15.8395 -9.54097 5.79409 -42.8877 2.70397
lowerback 32.8248 2.1026 -3.11225
upperback 8.67093 1.30266 0.798016
thorax -7.36635 0.440813 2.06084
lowerneck -8.14033 -12.8642 -15.7158
upperneck -23.0311 -14.5202 22.4544
head -2.35865 -7.6293 9.32408
rclavicle 3.43897e-014 -6.57977e-014
rhumerus -20.6012 -8.20682 -79.2702
rradius 45.7684
rwrist -7.3594
rhand -12.0762 12.4289
rfingers 7.12502
rthumb 13.9836 -17.0808
lclavicle 3.43897e-014 -6.57977e-014
lhumerus -26.2657 -4.45105 89.384
lradius 68.0661
lwrist -16.5721
lhand -17.9314 36.2181
lfingers 7.12502
lthumb 8.33654 66.0336
rfemur -41.6294 -11.6743 12.2259
rtibia 69.2141
rfoot -32.1884 -6.55805
rtoes -27.1724
lfemur -44.1719 10.0457 -1.7003
ltibia 63.0609
lfoot -16.0561 -1.85889
ltoes -26.4463
429
root 24.7829 15.8675 -9.63707 6.53904 -43.2845 1.91866
lowerback 33.216 2.15973 -2.05506
upperback 8.38179 1.69684 0.698313
thorax -7.82609 0.632103 1.24492
lowerneck -7.37084 -12.8706 -15.0766
upperneck -23.5514 -14.6073 22.4055
head -2.67121 -7.76199 9.29112
rclavicle 1.145e-013 -2.90226e-014
rhumerus -20.8616 -9.31196 -79.34
rradius 46.4541
rwrist -7.52151
rhand -12.8221 11.8881
rfingers 7.12502
rthumb 13.2647 -17.6698
lclavicle 1.145e-013 -2.90226e-014
lhumerus -26.6662 -5.53187 89.437
lradius 68.0803
lwrist -16.1645
lhand -17.5938 36.4301
lfingers 7.12502
lthumb 8.66237 66.2324
rfemur -42.3115 -11.561 13.2337
rtibia 68.7185
rfoot -31.1224 -5.90647
rtoes -25.9517
lfemur -44.7992 11.4484 -2.15544
ltibia 66.5098
lfoot -16.7687 -3.28545
ltoes -24.1984
430
root 24.8283 15.9111 -9.73254 7.19553 -43.783 1.35325
lowerback 33.3261 2.47691 -1.20713
upperback 8.3356 2.34149 0.483022
thorax -7.90204 0.931326 0.333552
lowerneck -7.41088 -13.118 -13.7154
upperneck -23.7065 -15.0131 22.005
head -2.80162 -8.0487 8.92236
rclavicle -6.24184e-014 1.19271e-015
rhumerus -20.8914 -11.1426 -79.4348
rradius 47.1232
rwrist -7.59391
rhand -14.2768 11.8685
rfingers 7.12502
rthumb 11.8622 -17.7755
lclavicle -6.24184e-014 1.19271e-015
lhumerus -26.5729 -7.18891 89.4177
lradius 68.0749
lwrist -16.0738
lhand -18.2127 35.9637
lfingers 7.12502
lthumb 8.06502 65.7898
rfemur -42.9785 -11.4197 14.07
rtibia 68.2087
rfoot -30.2081 -5.46383
rtoes -25.5496
lfemur -45.3059 12.4146 -2.51264
ltibia 69.7207
lfoot -16.226 -6.23948
ltoes -11.4798
431
root 24.8699 15.9846 -9.81682 7.39284 -44.7108 1.58145
lowerback 32.8904 2.30302 -1.89536
upperback 8.61527 1.91208 0.67933
thorax -7.44984 0.721083 1.07261
lowerneck -8.08687 -12.6196 -14.5284
upperneck -23.5547 -14.2527 22.0236
head -2.71364 -7.5857 9.08067
rclavicle 1.26427e-013 -4.77083e-014
rhumerus -19.4792 -9.6514 -79.5824
rradius 47.257
rwrist -7.74165
rhand -14.2308 13.6108
rfingers 7.12502
rthumb 11.9066 -16.0306
lclavicle 1.26427e-013 -4.77083e-014
lhumerus -26.2148 -5.21934 89.4879
lradius 68.0932
lwrist -16.8487
lhand -19.1802 35.382
lfingers 7.12502
lthumb 7.13118 65.2419
rfemur -43.6207 -11.2858 14.2051
rtibia 67.5856
rfoot -29.5254 -5.0435
rtoes -26.5035
lfemur -45.4866 12.8949 -3.2093
ltibia 72.3932
lfoot -13.5672 -10.5869
ltoes 15.3474
432
root 24.9219 15.9879 -9.89255 7.51652 -45.653 1.89685
lowerback 32.2153 3.41658 -2.36928
upperback 9.21286 3.1818 0.77576
thorax -7.26964 1.31878 1.08802
lowerneck -8.0362 -12.8979 -12.5241
upperneck -24.3362 -14.8013 20.8288
head -3.17422 -7.96917 8.41379
rclavicle -1.82882e-014 4.65156e-014
rhumerus -19.3006 -12.4535 -78.7694
rradius 47.7316
rwrist -6.99231
rhand -14.9786 12.222
rfingers 7.12502
rthumb 11.1854 -17.4599
lclavicle -1.82882e-014 4.65156e-014
lhumerus -25.4752 -7.35364 90.1065
lradius 67.8139
lwrist -17.6782
lhand -18.0347 34.941
lfingers 7.12502
lthumb 8.23682 64.7604
rfemur -44.5807 -11.3426 14.1675
rtibia 67.3361
rfoot -29.1598 -3.94578
rtoes -25.6588
lfemur -45.5454 15.3176 -5.74287
ltibia 75.0247
lfoot -17.1268 -6.68416
ltoes -22.2031
433
root 24.9754 16.0322 -9.97161 7.91812 -46.2478 1.82179
lowerback 32.7524 3.12771 -2.87312
upperback 8.57673 2.68175 1.24083
thorax -7.52847 1.07651 1.91112
lowerneck -8.28623 -12.4642 -14.0026
upperneck -23.9503 -14.1095 21.234
head -2.96413 -7.51648 8.78856
rclavicle 4.49253e-014 -7.7526e-014
rhumerus -18.5787 -11.1977 -78.4471
rradius 47.8006
rwrist -5.73899
rhand -15.2476 11.5618
rfingers 7.12502
rthumb 10.9259 -18.1339
lclavicle 4.49253e-014 -7.7526e-014
lhumerus -25.9184 -5.29937 90.3361
lradius 68.0629
lwrist -18.7471
lhand -16.0752 34.6639
lfingers 7.12502
lthumb 10.1276 64.4001
rfemur -45.3649 -11.6357 14.4985
rtibia 67.0532
rfoot -28.9775 -2.00655
rtoes -21.3012
lfemur -45.5213 15.8967 -6.55097
ltibia 76.9606
lfoot -15.7658 -9.37778
ltoes -18.828
434
root 25.0287 16.0694 -10.0438 8.15492 -46.6679 1.89536
lowerback 32.9583 3.04871 -2.86174
upperback 8.42917 2.58621 1.29816
thorax -7.76625 1.03413 1.99201
lowerneck -8.2263 -12.1643 -14.2191
upperneck -24.111 -13.6766 21.3028
head -3.06841 -7.29531 8.90562
rclavicle -1.51076e-014 -3.18055e-015
rhumerus -18.2297 -11.4424 -78.3329
rradius 48.1225
rwrist -5.19476
rhand -15.1741 12.8622
rfingers 7.12502
rthumb 10.9968 -16.8298
lclavicle -1.51076e-014 -3.18055e-015
lhumerus -26.1766 -5.36291 90.4054
lradius 68.1636
lwrist -19.1154
lhand -15.763 35.4865
lfingers 7.12502
lthumb 10.4288 65.2078
rfemur -46.1161 -12.3165 14.7119
rtibia 66.9566
rfoot -28.7549 0.372944
rtoes -16.9461
lfemur -45.4221 16.3333 -7.639
ltibia 78.5898
lfoot -14.3536 -10.6717
ltoes -19.1854
435
root 25.085 16.0821 -10.1332 8.8382 -47.0256 1.76667
lowerback 32.7106 3.00826 -3.01506
upperback 8.33288 2.52759 1.56286
thorax -7.79417 1.00884 2.37792
lowerneck -8.54227 -11.9134 -14.1932
upperneck -24.0316 -13.3598 20.885
head -3.10019 -7.10295 8.77841
rclavicle 4.96962e-014 -5.20816e-014
rhumerus -17.7459 -11.2561 -78.151
rradius 48.611
rwrist -5.82072
rhand -15.4411 13.7661
rfingers 7.12502
rthumb 10.7393 -15.9394
lclavicle 4.96962e-014 -5.20816e-014
lhumerus -26.3157 -5.62619 90.6952
lradius 68.1888
lwrist -18.9679
lhand -15.7192 36.3852
lfingers 7.12502
lthumb 10.471 66.1045
rfemur -47.4162 -13.1791 15.2473
rtibia 66.9719
rfoot -27.922 2.44882
rtoes -16.0684
lfemur -45.5571 16.776 -8.49401
ltibia 79.6248
lfoot -12.6584 -12.3983
ltoes -22.6668
436
root 25.1422 16.0949 -10.2308 9.23064 -47.374 1.91267
lowerback 33.0233 2.88632 -2.93926
upperback 7.95962 2.38456 1.39487
thorax -8.30239 0.956702 2.19983
lowerneck -8.68936 -11.8248 -14.0485
upperneck -23.7114 -13.2606 20.788
head -3.01796 -7.04644 8.7024
rclavicle 1.51076e-014 -9.14409e-015
rhumerus -17.7442 -11.1824 -78.3058
rradius 49.3967
rwrist -7.07515
rhand -16.2391 13.2297
rfingers 7.12502
rthumb 9.96945 -16.5142
lclavicle 1.51076e-014 -9.14409e-015
lhumerus -26.759 -6.25875 90.4601
lradius 68.2762
lwrist -18.8938
lhand -14.5192 36.1927
lfingers 7.12502
lthumb 11.6284 65.8501
rfemur -48.7167 -14.1436 15.5901
rtibia 67.0995
rfoot -26.6706 4.51892
rtoes -16.1608
lfemur -45.3831 16.9457 -9.38312
ltibia 79.9822
lfoot -10.9142 -14.7712
ltoes -25.6128
437
root 25.1928 16.1243 -10.2954 9.44665 -48.0689 2.19773
lowerback 32.6309 3.02093 -3.18446
upperback 8.09446 2.4836 1.42312
thorax -8.01908 0.998853 2.33546
lowerneck -8.66005 -11.7155 -14.0676
upperneck -24.2324 -13.0947 20.7602
head -3.21027 -6.98102 8.75459
rclavicle -6.79844e-014 -1.74931e-014
rhumerus -17.3651 -10.7028 -78.0122
rradius 50.4778
rwrist -8.34133
rhand -17.0827 12.3623
rfingers 7.12502
rthumb 9.15552 -17.419
lclavicle -6.79844e-014 -1.74931e-014
lhumerus -26.4737 -6.76761 90.511
lradius 68.0975
lwrist -18.9057
lhand -13.9208 35.6468
lfingers 7.12502
lthumb 12.2054 65.2707
rfemur -49.9019 -14.9146 15.6237
rtibia 67.3381
rfoot -25.486 7.29358
rtoes -13.6187
lfemur -44.677 16.9564 -10.3745
ltibia 79.6497
lfoot -8.96608 -17.265
ltoes -25.134
